<svg width="40" height="40" viewBox="0 0 40 40" fill="none" xmlns="http://www.w3.org/2000/svg">
<path d="M5.92122 22.8605V16.4385C5.92122 14.3434 5.92122 13.2958 6.5721 12.645C7.22297 11.9941 8.27054 11.9941 10.3657 11.9941H13.5814M5.92122 22.8605V29.2825C5.92122 31.3777 5.92122 32.4252 6.5721 33.076C7.22297 33.727 8.27054 33.727 10.3657 33.727H29.6347C31.7298 33.727 32.7775 33.727 33.4283 33.076C34.0792 32.4252 34.0792 31.3777 34.0792 29.2825V22.8605M5.92122 22.8605C17.0222 27.134 23.1905 27.2483 34.0792 22.8605M13.5814 11.9941V10.7175C13.5814 8.62237 13.5814 7.57482 14.2322 6.92395C14.8831 6.27307 15.9307 6.27305 18.0257 6.27302L21.9652 6.27295C24.0603 6.27292 25.1078 6.2729 25.7587 6.92377C26.4097 7.57465 26.4097 8.62223 26.4097 10.7174V11.9941M13.5814 11.9941H26.4097M34.0792 22.8605V16.4385C34.0792 14.3434 34.0792 13.2958 33.4283 12.645C32.7775 11.9941 31.7298 11.9941 29.6347 11.9941H26.4097" stroke="#949494" stroke-width="1.77778" stroke-linecap="round" stroke-linejoin="round"/>
<path d="M19.9998 22.3754C20.2944 22.3754 20.5332 22.1267 20.5332 21.8198C20.5332 21.513 20.2944 21.2643 19.9998 21.2643C19.7053 21.2643 19.4665 21.513 19.4665 21.8198C19.4665 22.1267 19.7053 22.3754 19.9998 22.3754Z" stroke="#949494" stroke-width="1.77778"/>
</svg>
