<svg width="40" height="40" viewBox="0 0 40 40" fill="none" xmlns="http://www.w3.org/2000/svg">
<g clip-path="url(#clip0_1_343)">
<path d="M22.7553 34.4443H20.0003H12.6669C10.1778 34.4443 8.93325 34.4443 7.98253 33.9598C7.14626 33.5338 6.46635 32.8538 6.04025 32.0177C5.55583 31.0668 5.55583 29.8223 5.55583 27.3332V12.6665C5.55583 10.1774 5.55583 8.93285 6.04025 7.98214C6.46635 7.14585 7.14626 6.46594 7.98253 6.03984C8.93325 5.55542 10.1778 5.55542 12.6669 5.55542H24.0728C26.562 5.55542 27.8065 5.55542 28.7573 6.03984C29.5935 6.46594 30.2735 7.14585 30.6997 7.98214C31.184 8.93285 31.184 10.1774 31.184 12.6665V17.7777" stroke="#949494" stroke-width="1.77778" stroke-linecap="round"/>
<path d="M11.4079 12.144H25.3668" stroke="#949494" stroke-width="1.77778" stroke-linecap="round"/>
<path d="M11.3733 17.1631H25.3323" stroke="#949494" stroke-width="1.77778" stroke-linecap="round"/>
<path d="M11.3729 22.2222H16.9448" stroke="#949494" stroke-width="1.77778" stroke-linecap="round"/>
<path d="M22.3975 27.2053C25.445 26.6543 27.6035 24.1991 28.1843 21.2325C28.8037 24.2113 31.0705 26.563 33.9365 27.2053C31.216 27.86 28.9927 30.071 28.1843 32.858C27.5045 30.0233 25.4212 27.7971 22.3975 27.2053Z" stroke="#949494" stroke-width="1.77778" stroke-linecap="round" stroke-linejoin="round"/>
</g>
<defs>
<clipPath id="clip0_1_343">
<rect width="40" height="40" fill="white"/>
</clipPath>
</defs>
</svg>
