<svg width="40" height="40" viewBox="0 0 40 40" fill="none" xmlns="http://www.w3.org/2000/svg">
<path d="M16.2547 33.5849C16.2547 33.1416 16.2304 31.6693 16.2304 30.1016C11.5312 30.9677 10.3153 28.9567 9.94111 27.9036C9.72973 27.3649 8.8187 25.7054 8.02364 25.2603C7.3689 24.9104 6.43356 24.0443 7.99933 24.0219C9.47344 23.9976 10.5248 25.3781 10.8765 25.9393C12.5601 28.7679 15.2483 27.9727 16.324 27.4827C16.4886 26.2667 16.9787 25.4492 17.5174 24.9816C13.3551 24.5139 9.00577 22.8994 9.00577 15.744C9.00577 13.7087 9.72973 12.027 10.9232 10.7156C10.7362 10.2479 10.0814 8.33049 11.1103 5.75829C11.1103 5.75829 12.6761 5.26816 16.2547 7.67762C17.7776 7.25496 19.351 7.04222 20.9314 7.04532C22.5216 7.04532 24.1116 7.25485 25.6081 7.67575C29.1869 5.24385 30.7526 5.76016 30.7526 5.76016C31.7814 8.33236 31.1267 10.2498 30.9397 10.7175C32.1313 12.027 32.8571 13.6863 32.8571 15.744C32.8571 22.9237 28.4853 24.5139 24.3211 24.9816C25.0003 25.5652 25.5857 26.6876 25.5857 28.4423C25.5857 30.9434 25.5614 32.9544 25.5614 33.5867" stroke="#949494" stroke-width="1.92414"/>
</svg>
