<svg width="40" height="40" viewBox="0 0 40 40" fill="none" xmlns="http://www.w3.org/2000/svg">
<g clip-path="url(#clip0_1_331)">
<g clip-path="url(#clip1_1_331)">
<path d="M6.66667 11.9844V27.3783C6.66667 29.8675 6.66667 31.112 7.15109 32.0627C7.57719 32.899 8.2571 33.579 9.09339 34.005C10.0441 34.4895 11.2887 34.4895 13.7778 34.4895H26.2222C28.7113 34.4895 29.9558 34.4895 30.9067 34.005C31.7428 33.579 32.4228 32.899 32.849 32.0627C33.3333 31.112 33.3333 29.8675 33.3333 27.3783V11.9844" stroke="#949494" stroke-width="1.77778"/>
<path d="M4.44458 13.3331L16.472 6.46026C17.758 5.72543 18.401 5.35801 19.0838 5.21413C19.688 5.08683 20.3122 5.08683 20.9165 5.21413C21.5993 5.35801 22.2423 5.72543 23.5282 6.46026L35.5557 13.3331" stroke="#949494" stroke-width="1.77778" stroke-linecap="round"/>
<path d="M15.5558 26.6667C17.778 29.8355 22.2225 29.89 24.4447 26.6667" stroke="#949494" stroke-width="1.77778" stroke-linecap="round"/>
</g>
</g>
<defs>
<clipPath id="clip0_1_331">
<rect width="40" height="40" fill="white"/>
</clipPath>
<clipPath id="clip1_1_331">
<rect width="40" height="40" fill="white"/>
</clipPath>
</defs>
</svg>
