<svg width="24" height="25" viewBox="0 0 24 25" fill="none" xmlns="http://www.w3.org/2000/svg">
<g clip-path="url(#clip0_1_181)">
<mask id="mask0_1_181" style="mask-type:luminance" maskUnits="userSpaceOnUse" x="0" y="0" width="24" height="25">
<path d="M24 0.880005H0V24.88H24V0.880005Z" fill="white"/>
</mask>
<g mask="url(#mask0_1_181)">
<path d="M14.4861 4.02303C14.7413 4.09482 14.9576 4.26503 15.0874 4.49625C15.2172 4.72747 15.2498 5.00076 15.1781 5.25603L10.7481 21.044C10.7127 21.1705 10.6526 21.2887 10.5715 21.392C10.4903 21.4953 10.3896 21.5815 10.2751 21.6459C10.1606 21.7102 10.0346 21.7514 9.90419 21.767C9.77378 21.7827 9.64157 21.7725 9.51511 21.737C9.38865 21.7016 9.27041 21.6415 9.16714 21.5604C9.06387 21.4792 8.9776 21.3785 8.91325 21.264C8.8489 21.1495 8.80773 21.0235 8.79209 20.8931C8.77645 20.7627 8.78665 20.6305 8.82211 20.504L13.2521 4.71603C13.2875 4.58945 13.3476 4.47109 13.4288 4.36774C13.51 4.26438 13.6108 4.17805 13.7254 4.11369C13.84 4.04932 13.9662 4.00818 14.0967 3.99263C14.2273 3.97707 14.3596 3.9874 14.4861 4.02303ZM7.20711 7.93003C7.39458 8.11756 7.4999 8.37186 7.4999 8.63703C7.4999 8.90219 7.39458 9.1565 7.20711 9.34403L3.67211 12.88L7.20711 16.415C7.30002 16.5079 7.37373 16.6181 7.42404 16.7394C7.47435 16.8608 7.50027 16.9908 7.50031 17.1222C7.50036 17.2535 7.47453 17.3836 7.42431 17.505C7.37409 17.6263 7.30046 17.7366 7.20761 17.8295C7.11477 17.9224 7.00453 17.9961 6.8832 18.0464C6.76187 18.0968 6.63181 18.1227 6.50046 18.1227C6.36912 18.1228 6.23904 18.0969 6.11768 18.0467C5.99631 17.9965 5.88602 17.9229 5.79311 17.83L1.55011 13.587C1.36264 13.3995 1.25732 13.1452 1.25732 12.88C1.25732 12.6149 1.36264 12.3605 1.55011 12.173L5.79311 7.93003C5.98064 7.74256 6.23495 7.63724 6.50011 7.63724C6.76527 7.63724 7.01958 7.74256 7.20711 7.93003ZM16.7931 9.34403C16.6976 9.25178 16.6214 9.14144 16.569 9.01942C16.5166 8.89742 16.489 8.76621 16.4879 8.63343C16.4867 8.50065 16.512 8.36897 16.5623 8.24607C16.6126 8.12318 16.6868 8.01152 16.7807 7.91763C16.8746 7.82374 16.9863 7.74949 17.1092 7.69921C17.2321 7.64892 17.3637 7.62362 17.4965 7.62478C17.6293 7.62593 17.7605 7.65352 17.8825 7.70593C18.0045 7.75833 18.1149 7.83452 18.2071 7.93003L22.4501 12.173C22.6376 12.3605 22.7429 12.6149 22.7429 12.88C22.7429 13.1452 22.6376 13.3995 22.4501 13.587L18.2071 17.829C18.0185 18.0112 17.7659 18.112 17.5037 18.1097C17.2415 18.1074 16.9907 18.0022 16.8053 17.8168C16.6199 17.6314 16.5147 17.3806 16.5124 17.1184C16.5102 16.8562 16.611 16.6036 16.7931 16.415L20.3281 12.88L16.7931 9.34403Z" fill="#BDBDBD"/>
</g>
</g>
<defs>
<clipPath id="clip0_1_181">
<rect width="24" height="24" fill="white" transform="translate(0 0.880005)"/>
</clipPath>
</defs>
</svg>
