<svg width="25" height="25" viewBox="0 0 25 25" fill="none" xmlns="http://www.w3.org/2000/svg">
<path d="M19.8918 7.88C19.9455 7.57354 19.9314 7.25903 19.8507 6.95857C19.7699 6.6581 19.6244 6.37895 19.4242 6.14071C19.2241 5.90248 18.9743 5.71093 18.6923 5.57951C18.4103 5.4481 18.1029 5.38 17.7918 5.38H6.86776C6.55663 5.38 6.24927 5.4481 5.96725 5.57951C5.68523 5.71093 5.4354 5.90248 5.23528 6.14071C5.03516 6.37895 4.88961 6.6581 4.80885 6.95857C4.72808 7.25903 4.71406 7.57354 4.76776 7.88M17.8298 5.38C17.8578 5.12 17.8728 4.99101 17.8728 4.88401C17.8738 4.3897 17.6918 3.9125 17.3618 3.54446C17.0319 3.17643 16.5773 2.94364 16.0858 2.891C15.9798 2.88 15.8498 2.88 15.5898 2.88H9.06976C8.80976 2.88 8.67876 2.88 8.57276 2.891C8.08126 2.94364 7.62667 3.17643 7.29668 3.54446C6.96669 3.9125 6.78468 4.3897 6.78576 4.88401C6.78576 4.99101 6.79976 5.121 6.82876 5.38" stroke="#BDBDBD" stroke-width="1.5"/>
<path d="M15.33 18.8799H9.33" stroke="#BDBDBD" stroke-width="1.5" stroke-linecap="round"/>
<path d="M2.71384 14.6729C2.26684 11.5089 2.04384 9.92788 2.99184 8.90288C3.93984 7.87988 5.62784 7.87988 9.00184 7.87988H15.6578C19.0318 7.87988 20.7198 7.87988 21.6678 8.90388C22.6148 9.92788 22.3918 11.5089 21.9458 14.6729L21.5238 17.6729C21.1738 20.1529 20.9988 21.3939 20.1018 22.1369C19.2048 22.8799 17.8818 22.8799 15.2348 22.8799H9.42484C6.77884 22.8799 5.45484 22.8799 4.55784 22.1369C3.66084 21.3939 3.48584 20.1539 3.13584 17.6729L2.71384 14.6729Z" stroke="#BDBDBD" stroke-width="1.5"/>
</svg>
