<svg width="40" height="40" viewBox="0 0 40 40" fill="none" xmlns="http://www.w3.org/2000/svg">
<g clip-path="url(#clip0_1_372)">
<path d="M7.10245 30.3824V12.0908C7.10245 12.0345 7.14805 11.989 7.20428 11.989H12.674C12.7302 11.989 12.7758 12.0345 12.7758 12.0908V30.3824C12.7758 30.4385 12.7302 30.4842 12.674 30.4842H7.20428C7.14805 30.4842 7.10245 30.4385 7.10245 30.3824Z" stroke="#949494" stroke-width="1.66667" stroke-linecap="round" stroke-linejoin="round"/>
<path d="M16.1178 12.0967V30.1493C16.1178 30.2057 16.1634 30.2512 16.2196 30.2512H22.0537C22.11 30.2512 22.1555 30.2057 22.1555 30.1493V19.6167C22.1555 17.7375 23.6443 16.4573 25.4442 16.5087C27.2442 16.5601 28.5887 18.2304 28.5887 19.6167V30.1493C28.5887 30.2057 28.6342 30.2512 28.6905 30.2512H33.8887C33.944 30.2512 33.9893 30.2069 33.9903 30.1515L34.2318 18.2303C34.2318 10.9336 24.2552 9.49503 22.087 14.1205C22.0355 14.2303 21.7942 14.1934 21.7942 14.0721V12.0967C21.7942 12.0404 21.7487 11.9948 21.6923 11.9948H16.2196C16.1634 11.9948 16.1178 12.0404 16.1178 12.0967Z" stroke="#949494" stroke-width="1.66667" stroke-linecap="round" stroke-linejoin="round"/>
<path d="M9.72128 9.44255C11.4083 9.44255 12.7759 8.07495 12.7759 6.38793C12.7759 4.70091 11.4083 3.33331 9.72128 3.33331C8.03426 3.33331 6.66666 4.70091 6.66666 6.38793C6.66666 8.07495 8.03426 9.44255 9.72128 9.44255Z" stroke="#949494" stroke-width="1.66667"/>
</g>
<defs>
<clipPath id="clip0_1_372">
<rect width="40" height="40" fill="white"/>
</clipPath>
</defs>
</svg>
