<svg width="25" height="25" viewBox="0 0 25 25" fill="none" xmlns="http://www.w3.org/2000/svg">
<g clip-path="url(#clip0_1_231)">
<g clip-path="url(#clip1_1_231)">
<path d="M2.66998 6.12988C2.66998 5.26793 3.01239 4.44128 3.62188 3.83178C4.23138 3.22229 5.05803 2.87988 5.91998 2.87988H17.42C18.282 2.87988 19.1086 3.22229 19.7181 3.83178C20.3276 4.44128 20.67 5.26793 20.67 6.12988V8.88988C20.1682 8.83771 19.6611 8.87016 19.17 8.98588V7.87988H4.16998V17.6299C4.16998 18.5959 4.95398 19.3799 5.91998 19.3799H13.905L13.464 20.1439C13.3317 20.3726 13.2372 20.6211 13.184 20.8799H5.91998C5.05803 20.8799 4.23138 20.5375 3.62188 19.928C3.01239 19.3185 2.66998 18.4919 2.66998 17.6299V6.12988ZM5.91998 4.37988C5.45585 4.37988 5.01073 4.56425 4.68254 4.89244C4.35435 5.22063 4.16998 5.66575 4.16998 6.12988V6.37988H19.17V6.12988C19.17 5.66575 18.9856 5.22063 18.6574 4.89244C18.3292 4.56425 17.8841 4.37988 17.42 4.37988H5.91998ZM20.527 9.87988C19.8601 9.81732 19.1892 9.94768 18.5943 10.2554C17.9993 10.5632 17.5053 11.0354 17.171 11.6159C16.8345 12.1982 16.6728 12.8652 16.7055 13.537C16.7381 14.2088 16.9636 14.8569 17.355 15.4039L14.33 20.6439C14.1508 20.978 14.1087 21.3686 14.2126 21.7332C14.3164 22.0978 14.5581 22.4076 14.8864 22.5971C15.2147 22.7866 15.6039 22.8409 15.9715 22.7484C16.3391 22.656 16.6564 22.4241 16.856 22.1019L19.886 16.8519C20.5792 16.9148 21.2755 16.7697 21.8858 16.4349C22.496 16.1002 22.9927 15.591 23.3121 14.9726C23.6316 14.3542 23.7594 13.6545 23.6792 12.9631C23.599 12.2716 23.3145 11.6198 22.862 11.0909L21.212 13.9489C21.1366 14.084 21.0352 14.2028 20.9135 14.2984C20.7918 14.394 20.6523 14.4644 20.5032 14.5055C20.354 14.5467 20.1982 14.5578 20.0447 14.5381C19.8912 14.5185 19.7432 14.4685 19.6092 14.3912C19.4752 14.3138 19.3579 14.2106 19.2642 14.0874C19.1705 13.9643 19.1022 13.8238 19.0633 13.6741C19.0243 13.5243 19.0156 13.3683 19.0375 13.2152C19.0595 13.062 19.1116 12.9147 19.191 12.7819L20.841 9.92388C20.7371 9.90445 20.6323 9.88977 20.527 9.87988ZM10.973 10.1229C11.0396 10.1955 11.0913 10.2805 11.125 10.3731C11.1587 10.4657 11.1739 10.564 11.1696 10.6624C11.1654 10.7609 11.1417 10.8575 11.1001 10.9468C11.0585 11.0361 10.9996 11.1163 10.927 11.1829L8.52998 13.3799L10.927 15.5769C11.0737 15.7114 11.1609 15.8986 11.1695 16.0974C11.1782 16.2962 11.1075 16.4902 10.973 16.6369C10.8385 16.7836 10.6513 16.8708 10.4525 16.8794C10.2537 16.8881 10.0596 16.8174 9.91298 16.6829L6.91298 13.9329C6.83629 13.8626 6.77505 13.7772 6.73316 13.682C6.69126 13.5868 6.66963 13.4839 6.66963 13.3799C6.66963 13.2759 6.69126 13.173 6.73316 13.0778C6.77505 12.9826 6.83629 12.8972 6.91298 12.8269L9.91298 10.0769C9.98559 10.0103 10.0706 9.95862 10.1632 9.92488C10.2558 9.89114 10.3541 9.87598 10.4525 9.88025C10.551 9.88452 10.6476 9.90815 10.7369 9.94978C10.8262 9.99141 10.9064 10.0502 10.973 10.1229ZM13.927 16.6829L15.947 14.8309C15.6217 13.8886 15.6189 12.865 15.939 11.9209L13.927 10.0769C13.8544 10.0103 13.7694 9.95868 13.6768 9.92495C13.5842 9.89123 13.4859 9.87607 13.3875 9.88035C13.289 9.88462 13.1924 9.90824 13.1031 9.94985C13.0138 9.99146 12.9336 10.0503 12.867 10.1229C12.8004 10.1955 12.7488 10.2805 12.7151 10.3731C12.6814 10.4657 12.6662 10.564 12.6705 10.6624C12.6747 10.7608 12.6984 10.8575 12.74 10.9468C12.7816 11.0361 12.8404 11.1163 12.913 11.1829L15.31 13.3799L12.913 15.5769C12.7663 15.7114 12.6791 15.8986 12.6705 16.0974C12.6618 16.2962 12.7325 16.4902 12.867 16.6369C13.0015 16.7836 13.1887 16.8708 13.3875 16.8794C13.5863 16.8881 13.7803 16.8174 13.927 16.6829Z" fill="#BDBDBD"/>
</g>
</g>
<defs>
<clipPath id="clip0_1_231">
<rect width="24" height="24" fill="white" transform="translate(0.669983 0.879883)"/>
</clipPath>
<clipPath id="clip1_1_231">
<rect width="24" height="24" fill="white" transform="translate(0.669983 0.879883)"/>
</clipPath>
</defs>
</svg>
